Coordinates
version=1
nRows=19
nColumns=24
inDegrees=yes

Units are S.I. units (second, meters, Newtons, ...)
Angles are in degrees.

endheader
time	pelvis_tilt	pelvis_list	pelvis_rotation	pelvis_tx	pelvis_ty	pelvis_tz	hip_flexion_r	hip_adduction_r	hip_rotation_r	knee_angle_r	ankle_angle_r	subtalar_angle_r	mtp_angle_r	hip_flexion_l	hip_adduction_l	hip_rotation_l	knee_angle_l	ankle_angle_l	subtalar_angle_l	mtp_angle_l	lumbar_extension	lumbar_bending	lumbar_rotation
      3.74500000	    -19.70074966	     -0.22245999	      6.66954719	     -1.87405546	     -0.03624114	     -0.30815245	     46.03527446	     -1.59226269	      4.89843878	     -9.08064425	     -3.45445843	     -7.69947299	     11.02953089	      0.40663698	      3.95743465	     19.15300393	    -17.78230735	     14.02452754	      6.85838732	    -39.61079985	     13.15447763	     -1.88774012	     -8.10370981
      3.75000000	    -19.54574382	     -0.49137547	      6.77401680	     -1.86543378	     -0.03773295	     -0.30760354	     46.20477497	     -1.35823412	      4.55217446	    -10.34666260	     -4.34092513	     -8.11594799	     10.97864845	      0.15169568	      3.59093185	     18.80766511	    -18.61863845	     13.90325779	      7.55243353	    -39.28898205	     13.13602795	     -1.65572364	     -8.30275229
      3.75500000	    -19.51263129	     -0.71491556	      6.80766905	     -1.85680339	     -0.03937316	     -0.30693044	     46.57324121	     -1.11522447	      4.21686708	    -11.75891132	     -5.49011040	     -8.51056903	     11.07557728	      0.07238055	      3.28021754	     18.28186185	    -19.52162351	     13.64473595	      8.29158391	    -38.64692905	     13.24455714	     -1.46843320	     -8.40278460
      3.76000000	    -19.43205698	     -0.84702290	      6.86580228	     -1.84820169	     -0.04076674	     -0.30647611	     46.85020703	     -1.00514700	      3.79527398	    -12.96747389	     -7.68562948	     -9.51686256	     14.53638621	     -0.19203776	      3.07427718	     17.97029003	    -19.87143126	     10.54589116	      7.90870210	    -26.59334988	     13.27955432	     -1.34863636	     -8.50949607
      3.76500000	    -19.38490878	     -1.03829008	      6.75087249	     -1.83947367	     -0.04221283	     -0.30553112	     47.32171901	     -0.64612400	      3.58244141	    -14.82922727	     -8.23966438	     -9.07559630	     11.22976454	     -0.28764946	      2.75114112	     17.12639244	    -20.55672257	      8.85622611	      8.26298128	    -20.72362756	     13.36817615	     -1.16067161	     -8.41646342
      3.77000000	    -19.41157414	     -1.24303997	      6.73160730	     -1.83079821	     -0.04357184	     -0.30486002	     47.78838724	     -0.40123425	      3.26128970	    -16.32902000	    -10.04140545	     -9.63290665	     12.71417014	     -0.25289576	      2.44591324	     16.42233045	    -21.23027793	      6.72944431	      8.32710344	    -13.77799528	     13.53255572	     -0.97013356	     -8.46204233
      3.77500000	    -19.42460070	     -1.45865611	      6.60322499	     -1.82207516	     -0.04481924	     -0.30390164	     48.30027769	     -0.00324281	      3.21201566	    -18.15393130	    -10.75713913	     -9.46625929	     10.35648018	     -0.17656824	      2.09286295	     15.48998689	    -21.99614895	      4.76057589	      8.55221360	     -8.14018743	     13.67975721	     -0.75764507	     -8.36675201
      3.78000000	    -19.46753266	     -1.68974345	      6.48472785	     -1.81336520	     -0.04595680	     -0.30298968	     48.79964804	      0.39943425	      3.21065710	    -19.85391937	    -11.64360139	     -9.58734915	      9.53656717	     -0.00387226	      1.71805512	     14.50707226	    -22.79210956	      2.50873166	      8.66672606	     -2.03681292	     13.85644791	     -0.52982790	     -8.29955532
      3.78500000	    -19.51050374	     -1.96107521	      6.33713175	     -1.80465136	     -0.04698223	     -0.30201155	     49.27565239	      0.89563562	      3.33925796	    -21.58558597	    -12.04705779	     -9.59759882	      7.84968293	      0.25027803	      1.28067869	     13.41610242	    -23.69625912	      0.23533808	      8.81539348	      3.46288088	     14.03263509	     -0.25306269	     -8.20409930
      3.79000000	    -19.55376695	     -2.25882859	      6.16327379	     -1.79583815	     -0.04785966	     -0.30095335	     49.68597697	      1.47015562	      3.54396055	    -23.23825275	    -12.17015254	     -9.70427278	      6.23551768	      0.54517671	      0.78723067	     12.27061989	    -24.61892437	     -2.24478946	      8.90828327	      8.71871462	     14.22514437	      0.04348390	     -8.12848785
      3.79500000	    -19.54611892	     -2.54022920	      5.95972795	     -1.78709507	     -0.04859654	     -0.29981440	     50.00788068	      2.09624360	      3.80663527	    -24.86411745	    -11.96087077	     -9.85557749	      4.52802519	      0.85391424	      0.27861749	     11.05272138	    -25.61557950	     -4.86934033	      9.01256891	     13.65457301	     14.34207765	      0.33085964	     -7.99074942
      3.80000000	    -19.56643835	     -2.86110725	      5.74518154	     -1.77833815	     -0.04924066	     -0.29864032	     50.28377613	      2.79748184	      4.04602682	    -26.36560232	    -11.65140886	    -10.29533233	      2.86457528	      1.25183205	     -0.27502363	      9.90972675	    -26.69634030	     -7.57830374	      9.03571935	     17.70038441	     14.49210523	      0.65152172	     -7.82761684
      3.80500000	    -19.45570901	     -3.15912527	      5.48637824	     -1.76962484	     -0.04968565	     -0.29743476	     50.35058552	      3.54239141	      4.35683298	    -27.79522584	    -10.89752925	    -10.47858554	      1.15565303	      1.55097500	     -0.84269254	      8.70338513	    -27.81368061	    -10.44584250	      9.03350576	     21.38971423	     14.48700836	      0.97802313	     -7.63702701
      3.81000000	    -19.38349739	     -3.50645036	      5.22895991	     -1.76092634	     -0.05007378	     -0.29625545	     50.37176563	      4.34104885	      4.59613653	    -29.06377205	    -10.17212316	    -10.93306683	     -0.40595954	      1.95885998	     -1.45274654	      7.61803633	    -29.04654456	    -13.29920813	      8.98826565	     23.82488376	     14.52794055	      1.34862189	     -7.45453257
      3.81500000	    -19.28794557	     -3.73977428	      4.91942093	     -1.75244420	     -0.05037359	     -0.29506296	     50.29526736	      5.10507041	      4.98093234	    -30.16994234	     -9.62471518	    -11.61498904	     -0.92400826	      2.39632895	     -1.90458053	      6.66596691	    -30.42955371	    -16.00804169	      8.91172147	     24.03386481	     14.49802356	      1.62335049	     -7.18172231
      3.82000000	    -19.15661377	     -4.12821452	      4.61938147	     -1.74374135	     -0.05052604	     -0.29392054	     50.07120113	      5.97934299	      5.16110229	    -31.16024419	     -8.55327739	    -11.94966911	     -2.75683483	      2.81120898	     -2.55362862	      5.72528437	    -31.74006588	    -18.97747740	      8.63179842	     25.07316293	     14.48408430	      2.05533165	     -6.93284879
      3.82500000	    -19.06177388	     -4.40703833	      4.42131674	     -1.73539197	     -0.05057852	     -0.29297042	     49.81367428	      6.66500076	      5.30634291	    -31.94083202	     -7.94940881	    -12.70397437	     -2.99034529	      3.37535440	     -3.00322263	      5.10797824	    -33.21578229	    -21.81436603	      8.16816147	     24.24769686	     14.45463594	      2.34583493	     -6.76905481
      3.83000000	    -18.91528151	     -4.67386449	      4.07545307	     -1.72703036	     -0.05057848	     -0.29189188	     49.43460660	      7.45061570	      5.56979195	    -32.65888877	     -6.97366775	    -13.03318286	     -3.94082682	      3.91549644	     -3.45400088	      4.35262165	    -34.83486056	    -24.18393193	      7.84457120	     21.39284803	     14.36562253	      2.67346995	     -6.39832106
      3.83500000	    -18.81940698	     -4.91070559	      3.82649973	     -1.71887758	     -0.05050175	     -0.29093305	     49.04665438	      8.10309389	      5.69847387	    -33.22858573	     -6.14258229	    -13.47604800	     -4.45332389	      4.61366049	     -3.82837793	      3.77948645	    -36.55501643	    -26.39708650	      7.28168617	     17.77277005	     14.30825838	      2.93032154	     -6.12365610
